<svg width="24" height="19" viewBox="0 0 24 19" fill="none" xmlns="http://www.w3.org/2000/svg">
<path fill-rule="evenodd" clip-rule="evenodd" d="M3.83331 2.49984H20.1666C20.6173 2.49984 21.0082 2.7553 21.2025 3.1293L12.6471 8.8329C12.2553 9.09415 11.7447 9.09415 11.3528 8.8329L2.79742 3.12928C2.99177 2.75529 3.38271 2.49984 3.83331 2.49984ZM2.66665 5.84642V15.3332C2.66665 15.9775 3.18898 16.4998 3.83331 16.4998H20.1666C20.811 16.4998 21.3333 15.9775 21.3333 15.3332V5.84644L13.9414 10.7744C12.7658 11.5581 11.2342 11.5581 10.0585 10.7744L2.66665 5.84642ZM0.333313 3.6665C0.333313 1.73351 1.90032 0.166504 3.83331 0.166504H20.1666C22.0996 0.166504 23.6666 1.73351 23.6666 3.6665V15.3332C23.6666 17.2662 22.0996 18.8332 20.1666 18.8332H3.83331C1.90032 18.8332 0.333313 17.2662 0.333313 15.3332V3.6665Z" fill="#0C0C12"/>
</svg>
