<svg width="23" height="23" viewBox="0 0 23 23" fill="none" xmlns="http://www.w3.org/2000/svg">
<path fill-rule="evenodd" clip-rule="evenodd" d="M7.53947 4.88812L5.78057 2.48961C5.66095 2.32651 5.43492 2.28494 5.2651 2.39482C2.96394 3.88381 2.33138 6.15834 3.2546 7.83507C4.26426 9.66881 5.82148 11.9177 8.21007 14.3063C10.5987 16.6948 12.8475 18.2521 14.6813 19.2617C16.358 20.185 18.6325 19.5524 20.1215 17.2512C20.2314 17.0814 20.1898 16.8554 20.0267 16.7358L17.6282 14.9769C17.2755 14.7182 16.8077 14.6786 16.4165 14.8742L15.4605 15.3522C14.6474 15.7588 13.5327 15.9016 12.4775 15.3587C11.7721 14.9958 10.6848 14.3061 9.44751 13.0688C8.2102 11.8315 7.52051 10.7442 7.15758 10.0388C6.61474 8.98363 6.75758 7.86896 7.16415 7.05582L7.64216 6.09979C7.83777 5.70858 7.79812 5.24083 7.53947 4.88812ZM3.99751 0.435821C1.03358 2.35366 -0.492135 5.86798 1.21061 8.96049C2.32189 10.9788 4.00987 13.4059 6.56016 15.9562C9.11044 18.5065 11.5375 20.1944 13.5558 21.3057C16.6483 23.0085 20.1627 21.4827 22.0805 18.5188C22.8617 17.3115 22.5662 15.7045 21.4066 14.8542L19.0081 13.0952C17.9499 12.3193 16.5467 12.2004 15.373 12.7872L14.417 13.2652C14.1403 13.4036 13.8201 13.4254 13.545 13.2839C13.0437 13.026 12.1554 12.4768 11.0974 11.4189C10.0395 10.361 9.49033 9.47264 9.23244 8.97136C9.09089 8.69622 9.11277 8.37608 9.25114 8.09932L9.72916 7.14329C10.316 5.96967 10.197 4.5664 9.42108 3.50827L7.66218 1.10977C6.8118 -0.0498385 5.20481 -0.34537 3.99751 0.435821Z" fill="#0C0C12"/>
</svg>
